<svg width="29" height="28" viewBox="0 0 29 28" fill="none" xmlns="http://www.w3.org/2000/svg">
<path d="M25.9791 4.66666H23.361V6.22221H25.7777V23.3333H3.22216V6.22221H5.63882V4.66666H3.02077C2.83246 4.66969 2.64662 4.70852 2.47385 4.78092C2.30109 4.85331 2.14478 4.95786 2.01387 5.08859C1.88296 5.21932 1.78001 5.37367 1.71089 5.54282C1.64177 5.71198 1.60785 5.89262 1.61105 6.07443V23.4811C1.60785 23.6629 1.64177 23.8436 1.71089 24.0127C1.78001 24.1819 1.88296 24.3362 2.01387 24.4669C2.14478 24.5977 2.30109 24.7022 2.47385 24.7746C2.64662 24.847 2.83246 24.8858 3.02077 24.8889H25.9791C26.1674 24.8858 26.3533 24.847 26.526 24.7746C26.6988 24.7022 26.8551 24.5977 26.986 24.4669C27.1169 24.3362 27.2199 24.1819 27.289 24.0127C27.3581 23.8436 27.392 23.6629 27.3888 23.4811V6.07443C27.392 5.89262 27.3581 5.71198 27.289 5.54282C27.2199 5.37367 27.1169 5.21932 26.986 5.08859C26.8551 4.95786 26.6988 4.85331 26.526 4.78092C26.3533 4.70852 26.1674 4.66969 25.9791 4.66666Z" fill="white"/>
<path d="M6.44434 10.8889H8.05545V12.4444H6.44434V10.8889Z" fill="white"/>
<path d="M11.2778 10.8889H12.8889V12.4444H11.2778V10.8889Z" fill="white"/>
<path d="M16.1111 10.8889H17.7222V12.4444H16.1111V10.8889Z" fill="white"/>
<path d="M20.9443 10.8889H22.5554V12.4444H20.9443V10.8889Z" fill="white"/>
<path d="M6.44434 14.7778H8.05545V16.3333H6.44434V14.7778Z" fill="white"/>
<path d="M11.2778 14.7778H12.8889V16.3333H11.2778V14.7778Z" fill="white"/>
<path d="M16.1111 14.7778H17.7222V16.3333H16.1111V14.7778Z" fill="white"/>
<path d="M20.9443 14.7778H22.5554V16.3333H20.9443V14.7778Z" fill="white"/>
<path d="M6.44434 18.6667H8.05545V20.2222H6.44434V18.6667Z" fill="white"/>
<path d="M11.2778 18.6667H12.8889V20.2222H11.2778V18.6667Z" fill="white"/>
<path d="M16.1111 18.6667H17.7222V20.2222H16.1111V18.6667Z" fill="white"/>
<path d="M20.9443 18.6667H22.5554V20.2222H20.9443V18.6667Z" fill="white"/>
<path d="M8.05556 7.77777C8.2692 7.77777 8.4741 7.69582 8.62517 7.54996C8.77624 7.4041 8.86111 7.20627 8.86111 6.99999V2.33332C8.86111 2.12704 8.77624 1.92921 8.62517 1.78335C8.4741 1.63749 8.2692 1.55554 8.05556 1.55554C7.84191 1.55554 7.63701 1.63749 7.48594 1.78335C7.33487 1.92921 7.25 2.12704 7.25 2.33332V6.99999C7.25 7.20627 7.33487 7.4041 7.48594 7.54996C7.63701 7.69582 7.84191 7.77777 8.05556 7.77777Z" fill="white"/>
<path d="M20.9445 7.77777C21.1581 7.77777 21.363 7.69582 21.5141 7.54996C21.6652 7.4041 21.75 7.20627 21.75 6.99999V2.33332C21.75 2.12704 21.6652 1.92921 21.5141 1.78335C21.363 1.63749 21.1581 1.55554 20.9445 1.55554C20.7308 1.55554 20.5259 1.63749 20.3749 1.78335C20.2238 1.92921 20.1389 2.12704 20.1389 2.33332V6.99999C20.1389 7.20627 20.2238 7.4041 20.3749 7.54996C20.5259 7.69582 20.7308 7.77777 20.9445 7.77777Z" fill="white"/>
<path d="M10.4722 4.66666H18.5277V6.22221H10.4722V4.66666Z" fill="white"/>
</svg>
